<svg width="44" height="43" viewBox="0 0 44 43" fill="none" xmlns="http://www.w3.org/2000/svg">
<path d="M22.0923 0C10.0164 0 0.188774 9.46556 0.184516 21.0984C0.181677 24.8185 1.19226 28.4492 3.10839 31.647L0 42.5801L11.6146 39.6463C14.8453 41.3363 18.4377 42.2178 22.0837 42.2153H22.0923C34.1681 42.2153 43.9957 32.7484 44 21.1155C44.0028 15.4807 41.7262 10.1766 37.5888 6.18973C33.4528 2.20139 27.9528 0.00141934 22.0923 0ZM22.0923 38.6514H22.0852C18.8178 38.6514 15.6129 37.8055 12.8168 36.2073L12.1497 35.8269L5.26013 37.567L7.09961 31.0948L6.66671 30.432C4.84838 27.6588 3.88042 24.4146 3.88194 21.0984C3.88619 11.4285 12.056 3.56396 22.0994 3.56396C26.9621 3.56537 31.5338 5.39206 34.9729 8.70621C38.412 12.0204 40.304 16.4274 40.3012 21.1141C40.2969 30.784 32.1285 38.6514 22.0908 38.6514H22.0923ZM32.0803 25.5154C31.5324 25.2528 28.8413 23.9769 28.3388 23.7994C27.8378 23.6249 27.473 23.534 27.1083 24.062C26.7449 24.59 25.6946 25.778 25.3766 26.1286C25.0559 26.4806 24.7365 26.5232 24.1886 26.2606C23.6408 25.9966 21.8765 25.4402 19.7872 23.6433C18.1592 22.2467 17.0606 20.5208 16.7413 19.9914C16.4219 19.4648 16.7072 19.1795 16.9812 18.9169C17.2267 18.6827 17.529 18.3024 17.8015 17.9944C18.0741 17.6864 18.1649 17.4664 18.3494 17.1144C18.5311 16.7638 18.4403 16.4544 18.3026 16.1918C18.1649 15.9264 17.072 13.3318 16.6135 12.2773C16.1707 11.2497 15.7194 11.3873 15.383 11.3703C15.0636 11.3561 14.7003 11.3519 14.3326 11.3519C13.9707 11.3519 13.376 11.4839 12.8735 12.0118C12.3725 12.5398 10.9574 13.8144 10.9574 16.409C10.9574 19.0049 12.919 21.5115 13.1929 21.8635C13.4668 22.214 17.0535 27.5408 22.545 29.8259C23.8508 30.3667 24.8699 30.6917 25.6662 30.9359C26.9777 31.3375 28.1714 31.2794 29.1138 31.1445C30.1641 30.9926 32.3528 29.87 32.807 28.6394C33.264 27.4088 33.264 26.3528 33.1277 26.1328C32.9943 25.9128 32.6281 25.7808 32.0803 25.5154V25.5154Z" fill="black"/>
</svg>
