<svg width="1187" height="552" viewBox="0 0 1187 552" fill="none" xmlns="http://www.w3.org/2000/svg">
<path d="M292 422V411H275L292 422Z" fill="#B48DD1"/>
<path d="M275 152V163H292L275 152Z" fill="#B48DD1"/>
<path d="M163 165V175.5H146L163 165Z" fill="#B48DD1"/>
<path d="M163 343.5V333H146L163 343.5Z" fill="#B48DD1"/>
<path d="M283.5 163V296M283.5 411.5V296M283.5 296L154.5 243.5V333V175.5M314 295.75V167.5L376 129L449 175.5V238M314 295.75V411.5L449 341V238M314 295.75L449 238" stroke="#B48DD1" stroke-width="20"/>
<path d="M522.131 342.026V191.044L541.255 181.985H542.262V252.846H601.649V191.044L620.773 181.985H621.78V332.967L602.655 342.026H601.649V271.165H542.262V332.967L523.138 342.026H522.131ZM670.714 338C650.583 338 640.517 327.934 640.517 307.803V232.312L659.642 223.253H660.649V307.803C660.649 315.856 664.004 319.882 670.714 319.882H693.865C700.575 319.882 703.93 315.856 703.93 307.803V232.312L723.055 223.253H724.061V307.803C724.061 327.934 713.996 338 693.865 338H670.714ZM772.996 319.882H796.146C802.857 319.882 806.212 315.856 806.212 307.803V257.476C806.212 249.424 802.857 245.397 796.146 245.397H772.996C766.285 245.397 762.93 249.424 762.93 257.476V307.803C762.93 315.856 766.285 319.882 772.996 319.882ZM772.996 338C752.865 338 742.799 327.934 742.799 307.803V191.044L761.924 181.985H762.93V230.4C765.614 228.32 768.969 227.279 772.996 227.279H796.146C816.277 227.279 826.343 237.345 826.343 257.476V307.803C826.343 327.934 816.277 338 796.146 338H772.996ZM875.277 319.882H898.428C905.138 319.882 908.494 315.856 908.494 307.803V257.476C908.494 249.424 905.138 245.397 898.428 245.397H875.277C868.567 245.397 865.212 249.424 865.212 257.476V307.803C865.212 315.856 868.567 319.882 875.277 319.882ZM875.277 338C855.146 338 845.081 327.934 845.081 307.803V191.044L864.205 181.985H865.212V230.4C867.896 228.32 871.251 227.279 875.277 227.279H898.428C918.559 227.279 928.625 237.345 928.625 257.476V307.803C928.625 327.934 918.559 338 898.428 338H875.277ZM972.526 338C952.395 338 942.33 327.934 942.33 307.803V232.312L961.454 223.253H962.461V307.803C962.461 315.856 965.816 319.882 972.526 319.882H995.677C1002.39 319.882 1005.74 315.856 1005.74 307.803V232.312L1024.87 223.253H1025.87V307.803C1025.87 327.934 1015.81 338 995.677 338H972.526Z" fill="#B48DD1"/>
</svg>
