<svg width="112" height="53" viewBox="0 0 112 53" fill="none" xmlns="http://www.w3.org/2000/svg">
<path d="M27.5518 39.8179V38.78H25.9478L27.5518 39.8179Z" fill="#FBFAFB"/>
<path d="M25.9478 14.342V15.3799H27.5519L25.9478 14.342Z" fill="#FBFAFB"/>
<path d="M15.38 15.5686V16.5593H13.776L15.38 15.5686Z" fill="#FBFAFB"/>
<path d="M15.38 32.4111V31.4204H13.776L15.38 32.4111Z" fill="#FBFAFB"/>
<path d="M26.7499 15.38V27.9292M26.7499 38.8273V27.9292M26.7499 27.9292L14.5781 22.9756V31.4204V16.5594M29.6278 27.9057V15.8046L35.4778 12.1719L42.3658 16.5594V22.4566M29.6278 27.9057V38.8273L42.3658 32.1752V22.4566M29.6278 27.9057L42.3658 22.4566" stroke="#FBFAFB" stroke-width="1.88711"/>
<path d="M49.2659 32.6831V18.4371L51.0704 17.5823H51.1654V24.2685H56.7688V18.4371L58.5733 17.5823H58.6683V31.8284L56.8638 32.6831H56.7688V25.997H51.1654V31.8284L49.3609 32.6831H49.2659ZM63.2856 32.3032C61.3861 32.3032 60.4363 31.3535 60.4363 29.454V22.331L62.2408 21.4762H62.3358V29.454C62.3358 30.2138 62.6524 30.5937 63.2856 30.5937H65.4699C66.1031 30.5937 66.4197 30.2138 66.4197 29.454V22.331L68.2242 21.4762H68.3192V29.454C68.3192 31.3535 67.3694 32.3032 65.4699 32.3032H63.2856ZM72.9364 30.5937H75.1208C75.7539 30.5937 76.0705 30.2138 76.0705 29.454V24.7053C76.0705 23.9455 75.7539 23.5657 75.1208 23.5657H72.9364C72.3032 23.5657 71.9867 23.9455 71.9867 24.7053V29.454C71.9867 30.2138 72.3032 30.5937 72.9364 30.5937ZM72.9364 32.3032C71.0369 32.3032 70.0872 31.3535 70.0872 29.454V18.4371L71.8917 17.5823H71.9867V22.1505C72.2399 21.9543 72.5565 21.8561 72.9364 21.8561H75.1208C77.0203 21.8561 77.97 22.8059 77.97 24.7053V29.454C77.97 31.3535 77.0203 32.3032 75.1208 32.3032H72.9364ZM82.5872 30.5937H84.7716C85.4048 30.5937 85.7214 30.2138 85.7214 29.454V24.7053C85.7214 23.9455 85.4048 23.5657 84.7716 23.5657H82.5872C81.9541 23.5657 81.6375 23.9455 81.6375 24.7053V29.454C81.6375 30.2138 81.9541 30.5937 82.5872 30.5937ZM82.5872 32.3032C80.6878 32.3032 79.738 31.3535 79.738 29.454V18.4371L81.5425 17.5823H81.6375V22.1505C81.8908 21.9543 82.2073 21.8561 82.5872 21.8561H84.7716C86.6711 21.8561 87.6208 22.8059 87.6208 24.7053V29.454C87.6208 31.3535 86.6711 32.3032 84.7716 32.3032H82.5872ZM91.7632 32.3032C89.8637 32.3032 88.914 31.3535 88.914 29.454V22.331L90.7185 21.4762H90.8135V29.454C90.8135 30.2138 91.13 30.5937 91.7632 30.5937H93.9476C94.5808 30.5937 94.8973 30.2138 94.8973 29.454V22.331L96.7018 21.4762H96.7968V29.454C96.7968 31.3535 95.8471 32.3032 93.9476 32.3032H91.7632Z" fill="#FBFAFB"/>
</svg>
